# xmcd
#
# Track frame offsets:
#	150
#	24120
#	45776
#	67182
#	97474
#	121847
#	150269
#	174406
#	203722
#	228809
#	252020
#	278039
#	306045
#	331852
#
# Disc length: 4802 seconds
#
# Revision: 0
# Processed by: cddbd v1.5.1PL0 Copyright (c) Steve Scherf et al.
# Submitted via: audiograbber 1.83.01
#
DISCID=a712c00e
DTITLE=Various Artist - Anjunabeats. Progressive Session. (Mixed by Above and Beyond)
DYEAR=1900
DGENRE=
TTITLE0=Yilmaz Altanhan. - Eighties. (Ozgur Can Rmx)
TTITLE1=David West feat. Andreas Hermansson. - Larry Mountains 54. (Original Mi
TTITLE1=x)
TTITLE2=Above and Beyond vs. Andy Moor. - Air For Life. (Airwave Rmx)
TTITLE3=OceanLab. - Sirens Of The Sea. (Kyau vs. Albert Vocal Mix)
TTITLE4=Smith and Pledger pres. Aspekt. - Hijack. (Original Mix)
TTITLE5=Alt+F4. - Alt+F4. (Original Mix)
TTITLE6=Smith and Pledger. - Northern Lights. (Original Mix)
TTITLE7=Carrie Skipper. - Time Goes By. (Super8 Deep Mix)
TTITLE8=Super8 and Dj Tab. - First Aid. (Perry O'Neil Mix)
TTITLE9=Lucas and Beltram. - Trust Me. (Original Mix)
TTITLE10=Mike Koglin vs. Jono Grant. - Sequential. (Original Mix)
TTITLE11=Above and Beyond pres. Tranquility Base. - Getting Away. (Original Mix)
TTITLE12=Aalto. - Resolution. (Original Mix)
TTITLE13=Kyau vs. Albert. - Made Of Sun. (KvA Volume Three Mix)
EXTD=
EXTT0=
EXTT1=
EXTT2=
EXTT3=
EXTT4=
EXTT5=
EXTT6=
EXTT7=
EXTT8=
EXTT9=
EXTT10=
EXTT11=
EXTT12=
EXTT13=
PLAYORDER=
